# xmcd
#
# Track frame offsets:
#	150
#	14513
#	27783
#	40973
#	54248
#	68163
#	80433
#	92508
#	106396
#	119891
#	133891
#	146858
#	160551
#	174716
#	188101
#	203241
#	217296
#	230961
#	244486
#	258038
#	272121
#	285423
#	299171
#	313253
#	327836
#
# Disc length: 4560 seconds
#
# Revision: 5
# Processed by: cddbd v1.5.2PL0 Copyright (c) Steve Scherf et al.
# Submitted via: EZCDAudioConverter 7.0.9.1
#
DISCID=8d11ce19
DTITLE=Various Artist - Triomphes du Blues 1, Du Delta à Detroit
DYEAR=2001
DGENRE=Blues
TTITLE0=Charley Patton - Spoonful blues -  1929
TTITLE1=Charley Patton - Love my stuff - 1934
TTITLE2=Charley Patton - You're gonna need somebody to die -  1929
TTITLE3=Charley Patton - 1934 blues - 1934
TTITLE4=Charley Patton - Mississippi Bo Weavil blues - 1929
TTITLE5=Charley Patton - Hang it on the wall - 1934
TTITLE6=Charley Patton - Revenue man blues - 1934
TTITLE7=Charley Patton - Screamin and hollerin' blues -  1929
TTITLE8=Charley Patton - Some summer day - 1930
TTITLE9=Charley Patton - When your way gets dark - 1929
TTITLE10=Charley Patton - Some of these days i'll be gone - 1929
TTITLE11=Charley Patton - Jim Lee blues -  1929
TTITLE12=John Lee Hooker - Boogie Chillen - 1948
TTITLE13=John Lee Hooker - She was in Chicago - 1948
TTITLE14=John Lee Hooker - Shady grove blues - 1948
TTITLE15=John Lee Hooker - Talking boogie - 1949
TTITLE16=John Lee Hooker - Hobo blues - 1949
TTITLE17=John Lee Hooker - Drifting from door to door - 1949
TTITLE18=John Lee Hooker - Crawling king snake - 1949
TTITLE19=John Lee Hooker - Alberta - 1949
TTITLE20=John Lee Hooker - Mommma Poppa boogie - 1949
TTITLE21=John Lee Hooker - Black cat blues - 1949
TTITLE22=John Lee Hooker - The numbers - 1949
TTITLE23=John Lee Hooker - Forgive me - 1949
TTITLE24=John Lee Hooker - Sally Mae - 1948
EXTD=
EXTT0=
EXTT1=
EXTT2=
EXTT3=
EXTT4=
EXTT5=
EXTT6=
EXTT7=
EXTT8=
EXTT9=
EXTT10=
EXTT11=
EXTT12=
EXTT13=
EXTT14=
EXTT15=
EXTT16=
EXTT17=
EXTT18=
EXTT19=
EXTT20=
EXTT21=
EXTT22=
EXTT23=
EXTT24=
PLAYORDER=
